<svg xmlns="http://www.w3.org/2000/svg" height="800" width="1200" viewBox="-58.8 -32.275 509.6 193.65"><path d="M126.154 111.864l-.38-94.65c0-9.516 7.41-17.214 16.91-17.214h1.856c9.509 0 17.222 7.698 17.222 17.214l.378 94.65c0 9.502-7.698 17.222-17.229 17.222h-1.952c-9.531 0-16.805-7.72-16.805-17.222M343.55 11.179l38.258 62.286C390.078 86.915 392 90.42 392 100.336c0 15.64-14.178 27.606-26.76 27.606h-51.656c-9.442 0-17.05-6.517-17.05-15.937v-1.076c0-9.412 7.608-17.036 17.05-17.036h31.666c1.982 0 3.244-.267 3.764-1.521.579-1.374.423-2.146-.52-3.682l-22.558-36.202c-.38-.601-.795-1.433-1.507-1.433-.654 0-1.218.832-1.522 1.477l-34.495 59.162c-5.344 9.39-11.669 16.248-21.096 16.248h-66.28c-12.544 0-25.186-12.374-25.186-25.193V17.162c0-9.405 7.616-17.043 17.006-17.043h2.175c9.413 0 17.05 7.638 17.05 17.043l-.029 69.917c0 2.583 1.87 4.624 4.654 4.624h32.958c5.753 0 9.235-2.07 12.263-7.103l44.293-73.421C310.451 4.194 317.22.46 325.208.46c7.727 0 13.851 3.496 18.342 10.719M40.856 83.635a4.617 4.617 0 00-4.624 4.632v23.82c0 9.412-7.624 17.013-17.021 17.013h-2.19C7.623 129.1 0 121.5 0 112.087l.015-43.32c0-10.994 8.44-20.28 20.272-20.28h69.212c9.39 0 17.02 7.63 17.02 17.043v1.069c0 9.427-7.63 17.036-17.02 17.036z" fill="#03234c"/><path d="M17.229 2.45h80.62c9.502 0 17.23 7.415 17.23 16.91v1.068c0 9.539-7.728 17.244-17.23 17.244H17.23C7.72 37.672.008 29.967.008 20.428v-1.18C.007 9.732 7.72 2.45 17.23 2.45" fill="#e51937"/></svg>