<?xml version="1.0" encoding="UTF-8"?>
<svg id="Layer_2" data-name="Layer 2" xmlns="http://www.w3.org/2000/svg" viewBox="0 0 59.29 62.99">
  <defs>
    <style>
      .cls-1 {
        fill: #9869ff;
      }
    </style>
  </defs>
  <g id="Layer_1-2" data-name="Layer 1">
    <g>
      <path class="cls-1" d="m59.29,19.58c-.44,2.57-1.09,6.83-1.92,11.05-1.53,7.73-3.22,15.43-4.77,23.15-1.33,6.62-6.83,10.36-13.2,8.88-5.56-1.29-8.56-5.63-7.76-11.43.37-2.68.88-5.36,1.55-7.98,1.56-6.08,1.47-12.1-.48-18.05-2.22-6.78-1.17-13.15,2.25-19.23,3.72-6.63,12.04-7.96,17.67-2.84,4.33,3.94,6.62,8.82,6.67,16.44Zm-3.75.18c.07-6.38-1.61-10.27-5.08-13.59-4.06-3.87-9.76-3.08-12.46,1.84-2.75,5.01-3.65,10.24-1.83,15.84,2.17,6.65,2.38,13.39.62,20.22-.75,2.91-1.25,5.91-1.51,8.9-.26,2.89,1.08,4.61,3.77,5.68,4.63,1.85,8.83-.48,9.86-5.47,1.62-7.83,3.27-15.65,4.84-23.49.77-3.86,1.4-7.74,1.79-9.93Z"/>
      <path class="cls-1" d="m0,19.24C.07,11.67,2.52,6.6,7.24,2.67,12.69-1.87,20.57-.46,24.14,5.66c3.59,6.15,4.74,12.63,2.44,19.54-2.13,6.41-1.93,12.84-.2,19.32.59,2.2.97,4.46,1.28,6.71.79,5.71-2.14,10.07-7.57,11.41-5.55,1.36-10.89-1.28-12.65-6.56-.85-2.55-1.06-5.3-1.63-7.95-1.46-6.74-3.04-13.46-4.43-20.21-.68-3.31-1.07-6.68-1.37-8.68Zm3.73-.19c.21,1.45.44,4.03.96,6.56,1.54,7.41,3.21,14.79,4.8,22.18.48,2.22.65,4.53,1.29,6.7,1.03,3.53,4.47,5.42,7.95,4.65,4.01-.9,5.72-3.24,5.26-7.36-.19-1.71-.42-3.44-.9-5.09-2.37-8.11-2.25-16.11.33-24.18,1.73-5.4.28-10.5-2.57-15.19-2.47-4.05-7.76-4.8-11.38-1.71-3.76,3.21-5.77,7.29-5.74,13.43Z"/>
    </g>
  </g>
</svg>